<svg width="16" height="16" viewBox="0 0 16 16" fill="none" xmlns="http://www.w3.org/2000/svg">
<path d="M10.6668 4.3335H5.3335C3.44788 4.3335 2.50507 4.3335 1.91928 4.91928C1.3335 5.50507 1.3335 6.44788 1.3335 8.3335V10.0002C1.3335 11.8858 1.3335 12.8286 1.91928 13.4144C2.50507 14.0002 3.44788 14.0002 5.3335 14.0002H10.6668C12.5524 14.0002 13.4952 14.0002 14.081 13.4144C14.6668 12.8286 14.6668 11.8858 14.6668 10.0002V8.3335C14.6668 6.44788 14.6668 5.50507 14.081 4.91928C13.4952 4.3335 12.5524 4.3335 10.6668 4.3335Z" stroke="#021265" stroke-linecap="round" stroke-linejoin="round"/>
<path d="M5 4.3335V7.3335M5 14.0002V10.0002M11 4.3335V14.0002" stroke="#021265" stroke-linecap="round" stroke-linejoin="round"/>
<path d="M6.00016 7.3335H4.00016C3.63198 7.3335 3.3335 7.63196 3.3335 8.00016V9.3335C3.3335 9.7017 3.63198 10.0002 4.00016 10.0002H6.00016C6.36835 10.0002 6.66683 9.7017 6.66683 9.3335V8.00016C6.66683 7.63196 6.36835 7.3335 6.00016 7.3335Z" stroke="#021265" stroke-linecap="round" stroke-linejoin="round"/>
<path d="M5.6665 4.33333C5.6665 3.39703 5.6665 2.92887 5.89121 2.59257C5.98849 2.44699 6.11349 2.32199 6.25908 2.22471C6.59538 2 7.0635 2 7.99984 2C8.93617 2 9.4043 2 9.74057 2.22471C9.88617 2.32199 10.0112 2.44699 10.1084 2.59257C10.3332 2.92887 10.3332 3.39703 10.3332 4.33333" stroke="#021265" stroke-linecap="round" stroke-linejoin="round"/>
</svg>
